<svg width="12" height="13" viewBox="0 0 12 13" fill="none" xmlns="http://www.w3.org/2000/svg">
<path d="M11.5 6.5C11.5 9.85214 9.00064 12.5 6 12.5C2.99936 12.5 0.5 9.85214 0.5 6.5C0.5 3.14786 2.99936 0.5 6 0.5C9.00064 0.5 11.5 3.14786 11.5 6.5Z" fill="#FD5959"/>
<path d="M11.5 6.5C11.5 9.85214 9.00064 12.5 6 12.5C2.99936 12.5 0.5 9.85214 0.5 6.5C0.5 3.14786 2.99936 0.5 6 0.5C9.00064 0.5 11.5 3.14786 11.5 6.5Z" fill="black" fill-opacity="0.2"/>
<path d="M11.5 6.5C11.5 9.85214 9.00064 12.5 6 12.5C2.99936 12.5 0.5 9.85214 0.5 6.5C0.5 3.14786 2.99936 0.5 6 0.5C9.00064 0.5 11.5 3.14786 11.5 6.5Z" stroke="white"/>
<path d="M6.31676 3.90909V9H5.70028V4.5554H5.67045L4.42756 5.38068V4.75426L5.70028 3.90909H6.31676Z" fill="white"/>
</svg>
